# Blender v3.1.2 OBJ File: ''
# www.blender.org
mtllib stage.mtl
o stage_円.001
v 0.000000 0.000000 -75.000000
v -64.951912 0.000000 -37.499996
v -64.951904 0.000000 37.500004
v 0.000007 0.000000 75.000000
v 64.951912 0.000000 37.499992
v 64.951912 0.000000 -37.499992
v -0.000002 0.000000 -50.000000
v -43.301277 0.000000 -24.999998
v -43.301273 0.000000 25.000004
v 0.000002 0.000000 50.000000
v 43.301270 0.000000 24.999996
v 43.301270 0.000000 -24.999996
vt 0.214870 0.364678
vt 0.361163 0.647165
vt 0.214870 0.647165
vt 0.361163 0.929652
vt 0.214870 0.929652
vt 0.184994 0.929652
vt 0.040561 0.647165
vt 0.184994 0.647165
vt 0.040561 0.364678
vt 0.184994 0.364678
vt 0.040561 0.082191
vt 0.184994 0.082191
vt 0.214870 0.082191
vt 0.361163 0.364678
vt 0.695157 0.159728
vt 0.983832 0.326394
vt 0.695157 0.826394
vt 0.040561 0.929652
vt 0.361163 0.082191
vt 0.983832 0.659728
vt 0.406482 0.659728
vt 0.406482 0.326394
vn 0.0000 1.0000 0.0000
usemtl マテリアル
s off
f 1/1/1 12/2/1 6/3/1
f 6/3/1 11/4/1 5/5/1
f 5/6/1 10/7/1 4/8/1
f 4/8/1 9/9/1 3/10/1
f 3/10/1 8/11/1 2/12/1
f 2/13/1 7/14/1 1/1/1
f 12/15/1 7/16/1 9/17/1
f 1/1/1 7/14/1 12/2/1
f 6/3/1 12/2/1 11/4/1
f 5/6/1 11/18/1 10/7/1
f 4/8/1 10/7/1 9/9/1
f 3/10/1 9/9/1 8/11/1
f 2/13/1 8/19/1 7/14/1
f 7/16/1 8/20/1 9/17/1
f 9/17/1 10/21/1 11/22/1
f 11/22/1 12/15/1 9/17/1
