# Blender v3.1.2 OBJ File: 'stage.blend'
# www.blender.org
mtllib stage.mtl
o 円.001
v -31.946457 0.000000 31.333908
v 0.000000 0.000000 87.133804
v -30.532618 0.000000 30.679581
v 0.000000 0.000000 83.691956
v 0.000000 0.000000 32.499454
v 24.544334 0.000000 19.343557
v 0.000000 5.538573 27.618013
v 20.995890 5.538573 14.518215
v -98.489449 0.000000 75.000008
v 0.000000 0.000000 114.510437
v -228.393265 0.000000 127.251678
v 0.000000 0.000000 254.503326
v 0.000000 11.614376 24.207970
v 17.815643 11.614376 10.511705
v -16.322618 16.783649 9.397141
v 0.000000 16.783649 21.544027
v 16.322618 16.783649 9.397141
v 0.000000 21.235592 19.833858
v 15.983051 21.235592 -9.201093
v 0.000000 88.026199 19.833858
v 31.946457 0.000000 31.333908
v 30.532618 0.000000 30.679581
v -24.544334 0.000000 19.343557
v -20.995890 5.538573 14.518215
v 98.489449 0.000000 75.000008
v 228.393265 0.000000 127.251678
v -17.815643 11.614376 10.511705
v -15.983051 21.235592 9.201093
v -15.983051 88.026199 -9.201093
v -31.946457 0.000000 -31.333908
v 0.000000 0.000000 -87.133804
v -30.532618 0.000000 -30.679581
v 0.000000 0.000000 -83.691956
v 0.000000 0.000000 -32.499454
v -20.995890 5.538573 -14.518215
v 0.000000 5.538573 -27.618013
v 20.995890 5.538573 -14.518215
v -98.489449 0.000000 -75.000008
v 0.000000 0.000000 -114.510437
v -228.393265 0.000000 -127.251678
v 0.000000 0.000000 -254.503326
v -17.815643 11.614376 -10.511705
v 0.000000 11.614376 -24.207970
v -16.322618 16.783649 -9.397141
v 0.000000 16.783649 -21.544027
v 0.000000 21.235592 -19.833858
v 15.983051 21.235592 9.201093
v 0.000000 88.026199 -19.833858
v 15.983051 88.026199 -9.201093
v 31.946457 0.000000 -31.333908
v 30.532618 0.000000 -30.679581
v 24.544334 0.000000 -19.343557
v -24.544334 0.000000 -19.343557
v 98.489449 0.000000 -75.000008
v 228.393265 0.000000 -127.251678
v 17.815643 11.614376 -10.511705
v 16.322618 16.783649 -9.397141
v -15.983051 21.235592 -9.201093
v 15.983051 88.026199 9.201093
v -15.983051 88.026199 9.201093
vt 0.849092 0.991972
vt 0.811981 0.924334
vt 0.849092 0.939222
vt 0.282602 0.251164
vt 0.531543 0.317780
vt 0.282602 0.317779
vt 0.055673 0.391580
vt 0.055673 0.317778
vt 0.743333 0.253570
vt 0.925725 0.317782
vt 0.743333 0.317781
vt 0.499085 0.729073
vt 0.148060 0.610803
vt 0.499085 0.610803
vt 0.499085 0.729073
vt 0.148060 0.610803
vt 0.499085 0.610803
vt 0.743333 0.317781
vt 0.531543 0.388645
vt 0.531543 0.317780
vt 0.743333 0.387485
vt 0.856685 0.729073
vt 0.505660 0.610803
vt 0.856685 0.610803
vt 0.143888 0.900894
vt 0.171615 0.952623
vt 0.147723 0.965243
vt 0.282602 0.389888
vt 0.055673 0.249470
vt 0.925725 0.317781
vt 0.743333 0.387485
vt 0.282602 0.389888
vt 0.282602 0.317779
vt 0.531543 0.252408
vt 0.856685 0.729073
vt 0.505660 0.610803
vt 0.856685 0.610803
vt 0.147723 0.836545
vt 0.171615 0.849166
vt 0.849092 0.852926
vt 0.861130 0.884267
vt 0.849092 0.863241
vt 0.849092 0.800176
vt 0.886204 0.867813
vt 0.030551 0.900473
vt 0.137460 0.901219
vt 0.140816 0.965008
vt 0.055673 0.249470
vt 0.055673 0.317778
vt 0.032545 0.027700
vt 0.412359 0.178840
vt 0.032545 0.178841
vt 0.499085 0.610803
vt 0.148060 0.729073
vt 0.148060 0.610803
vt 0.531543 0.252408
vt 0.598948 0.863537
vt 0.598948 0.951250
vt 0.518050 0.985144
vt 0.837055 0.884267
vt 0.280877 0.900894
vt 0.277041 0.965243
vt 0.253150 0.952623
vt 0.592204 0.178840
vt 0.975577 0.027700
vt 0.975577 0.178840
vt 0.837055 0.907881
vt 0.811981 0.867813
vt 0.286275 0.900795
vt 0.395064 0.900436
vt 0.282622 0.965693
vt 0.886204 0.924334
vt 0.531543 0.388645
vt 0.055673 0.391580
vt 0.412360 0.178840
vt 0.032545 0.027701
vt 0.412360 0.027700
vt 0.743333 0.253570
vt 0.505660 0.610803
vt 0.856685 0.729073
vt 0.505660 0.729073
vt 0.282602 0.251164
vt 0.861130 0.907881
vt 0.849092 0.928906
vt 0.253150 0.849166
vt 0.277041 0.836545
vt 0.592204 0.178840
vt 0.975577 0.027700
vt 0.975577 0.178840
vt 0.925725 0.529103
vt 0.743333 0.456692
vt 0.925725 0.456799
vt 0.592204 0.027700
vt 0.055673 0.534640
vt 0.282602 0.453892
vt 0.282602 0.532006
vt 0.531543 0.456082
vt 0.531543 0.529819
vt 0.743333 0.456692
vt 0.743333 0.529210
vt 0.055673 0.534641
vt 0.282602 0.453892
vt 0.282602 0.532006
vt 0.531543 0.456082
vt 0.531543 0.529819
vt 0.743333 0.529210
vt 0.925725 0.456800
vt 0.925725 0.529104
vt 0.763033 0.944023
vt 0.763033 0.848125
vt 0.935152 0.848125
vt 0.935152 0.944023
vt 0.925725 0.254199
vt 0.148060 0.729073
vt 0.148060 0.729073
vt 0.925725 0.386857
vt 0.505660 0.729073
vt 0.925725 0.386857
vt 0.505660 0.729073
vt 0.141705 0.837482
vt 0.412359 0.027700
vt 0.499085 0.729073
vt 0.448042 0.938573
vt 0.448042 0.850859
vt 0.528942 0.816966
vt 0.592204 0.027700
vt 0.282193 0.835923
vt 0.032545 0.178841
vt 0.925725 0.254199
vt 0.856685 0.610803
vt 0.055673 0.451254
vt 0.055673 0.451255
vn 0.0000 1.0000 0.0000
vn -0.4779 0.4299 -0.7660
vn 0.3731 0.6135 -0.6960
vn -0.5705 0.2945 -0.7667
vn 0.5539 0.0000 0.8326
vn -1.0000 0.0000 0.0000
vn -0.5642 0.3782 0.7339
vn 0.5705 0.2945 -0.7667
vn -0.5539 0.0000 0.8326
vn 0.4779 0.4299 -0.7660
vn -0.3731 0.6135 -0.6960
vn -0.5705 0.2945 0.7667
vn -0.4779 0.4299 0.7660
vn -0.5642 0.3782 -0.7339
vn 1.0000 0.0000 0.0000
vn 0.3731 0.6135 0.6960
vn 0.5539 0.0000 -0.8326
vn 0.5642 0.3782 0.7339
vn 0.5642 0.3782 -0.7339
vn -0.3731 0.6135 0.6960
vn 0.5705 0.2945 0.7667
vn -0.5539 0.0000 -0.8326
vn 0.4779 0.4299 0.7660
vn 0.9971 0.0761 0.0000
vn -0.8420 0.5395 0.0000
vn -0.8860 0.4637 0.0000
vn -0.9607 0.2775 0.0000
vn 0.8420 0.5395 0.0000
vn 0.8860 0.4637 0.0000
vn 0.9607 0.2775 0.0000
vn -0.9971 0.0761 0.0000
vn -0.4663 0.6440 -0.6065
vn 0.3599 0.7332 -0.5769
vn -0.5522 0.0787 -0.8300
vn -0.5643 0.3265 0.7583
vn 0.5522 0.0787 -0.8300
vn 0.4663 0.6440 -0.6065
vn -0.3599 0.7332 -0.5769
vn -0.5522 0.0787 0.8300
vn -0.4663 0.6440 0.6065
vn -0.5643 0.3265 -0.7583
vn 0.3599 0.7332 0.5769
vn 0.5643 0.3265 0.7583
vn 0.5643 0.3265 -0.7583
vn -0.3599 0.7332 0.5769
vn 0.5522 0.0787 0.8300
vn 0.4663 0.6440 0.6065
usemtl マテリアル
s off
f 41/1/1 38/2/1 39/3/1
f 35/4/2 43/5/2 36/6/2
f 36/6/3 52/7/3 34/8/3
f 44/9/4 46/10/4 45/11/4
f 20/12/5 47/13/5 59/14/5
f 29/15/6 28/16/6 60/17/6
f 16/18/7 27/19/7 13/20/7
f 46/10/8 57/21/8 45/11/8
f 60/22/9 18/23/9 20/24/9
f 5/25/1 23/26/1 3/27/1
f 43/5/10 37/28/10 36/6/10
f 53/29/11 36/6/11 34/8/11
f 18/30/12 15/31/12 16/18/12
f 13/20/13 24/32/13 7/33/13
f 42/34/14 45/11/14 43/5/14
f 59/35/15 19/36/15 49/37/15
f 5/25/1 22/38/1 6/39/1
f 10/40/1 21/41/1 2/42/1
f 12/43/1 25/44/1 10/40/1
f 4/45/1 5/46/1 3/47/1
f 6/48/16 7/33/16 5/49/16
f 33/50/1 50/51/1 31/52/1
f 48/53/17 19/54/17 46/55/17
f 14/56/18 16/18/18 13/20/18
f 49/57/1 48/58/1 29/59/1
f 1/60/1 10/40/1 2/42/1
f 34/61/1 32/62/1 53/63/1
f 30/64/1 33/65/1 31/66/1
f 30/67/1 39/3/1 38/2/1
f 9/68/1 12/43/1 10/40/1
f 34/69/1 33/70/1 32/71/1
f 54/72/1 41/1/1 39/3/1
f 45/11/19 56/73/19 43/5/19
f 7/33/20 23/74/20 5/49/20
f 1/75/1 4/76/1 3/77/1
f 17/78/21 18/30/21 16/18/21
f 48/79/22 58/80/22 29/81/22
f 8/82/23 13/20/23 7/33/23
f 50/83/1 39/3/1 31/84/1
f 34/61/1 52/85/1 51/86/1
f 21/87/1 4/88/1 2/89/1
f 47/90/24 57/91/24 19/92/24
f 3/77/1 30/64/1 1/75/1
f 50/51/1 22/93/1 21/87/1
f 3/27/1 53/63/1 32/62/1
f 53/94/25 24/95/25 35/96/25
f 35/96/26 27/97/26 42/98/26
f 42/98/27 15/99/27 44/100/27
f 51/86/1 6/39/1 22/38/1
f 6/101/28 37/102/28 8/103/28
f 8/103/29 56/104/29 14/105/29
f 14/105/30 57/91/30 17/106/30
f 44/100/31 28/107/31 58/108/31
f 9/68/1 30/67/1 38/2/1
f 9/68/1 40/109/1 11/110/1
f 54/72/1 21/41/1 25/44/1
f 54/72/1 26/111/1 55/112/1
f 41/1/1 40/109/1 38/2/1
f 35/4/32 42/34/32 43/5/32
f 36/6/33 37/28/33 52/7/33
f 44/9/34 58/113/34 46/10/34
f 20/12/5 18/114/5 47/13/5
f 29/15/6 58/115/6 28/16/6
f 16/18/35 15/31/35 27/19/35
f 46/10/36 19/116/36 57/21/36
f 60/22/9 28/117/9 18/23/9
f 43/5/37 56/73/37 37/28/37
f 53/29/38 35/4/38 36/6/38
f 18/30/39 28/118/39 15/31/39
f 13/20/40 27/19/40 24/32/40
f 42/34/41 44/9/41 45/11/41
f 59/35/15 47/119/15 19/36/15
f 10/40/1 25/44/1 21/41/1
f 12/43/1 26/111/1 25/44/1
f 4/45/1 22/120/1 5/46/1
f 6/48/42 8/82/42 7/33/42
f 33/50/1 51/121/1 50/51/1
f 48/53/17 49/122/17 19/54/17
f 14/56/43 17/78/43 16/18/43
f 29/59/1 60/123/1 49/57/1
f 60/123/1 20/124/1 59/125/1
f 49/57/1 60/123/1 59/125/1
f 1/60/1 9/68/1 10/40/1
f 30/64/1 32/126/1 33/65/1
f 30/67/1 31/84/1 39/3/1
f 9/68/1 11/110/1 12/43/1
f 34/69/1 51/127/1 33/70/1
f 54/72/1 55/112/1 41/1/1
f 45/11/44 57/21/44 56/73/44
f 7/33/45 24/32/45 23/74/45
f 1/75/1 2/128/1 4/76/1
f 17/78/46 47/129/46 18/30/46
f 48/79/22 46/130/22 58/80/22
f 8/82/47 14/56/47 13/20/47
f 50/83/1 54/72/1 39/3/1
f 21/87/1 22/93/1 4/88/1
f 47/90/24 17/106/24 57/91/24
f 3/77/1 32/126/1 30/64/1
f 50/51/1 51/121/1 22/93/1
f 3/27/1 23/26/1 53/63/1
f 53/94/25 23/131/25 24/95/25
f 35/96/26 24/95/26 27/97/26
f 42/98/27 27/97/27 15/99/27
f 51/86/1 52/85/1 6/39/1
f 6/101/28 52/132/28 37/102/28
f 8/103/29 37/102/29 56/104/29
f 14/105/30 56/104/30 57/91/30
f 44/100/31 15/99/31 28/107/31
f 9/68/1 1/60/1 30/67/1
f 9/68/1 38/2/1 40/109/1
f 54/72/1 50/83/1 21/41/1
f 54/72/1 25/44/1 26/111/1
