# Blender v3.1.2 OBJ File: ''
# www.blender.org
mtllib door.mtl
o 立方体_立方体.002
v -0.853975 0.599279 0.112188
v -0.853975 0.760455 0.112188
v -1.000000 0.737469 0.091157
v -1.000000 0.599279 0.091157
v -0.197561 0.545632 -0.093937
v -0.197561 0.866378 -0.093937
v 0.000000 0.866378 -0.093937
v 0.000000 0.545632 -0.093937
v -0.854385 0.602244 -0.085889
v -0.854385 0.720566 -0.085889
v -0.853975 0.760455 -0.112188
v -1.000000 0.737469 -0.091157
v 0.197561 0.545632 0.093937
v 0.197561 0.545632 -0.093937
v 0.854385 0.602244 -0.085889
v 0.854385 0.602244 0.085889
v 0.854385 0.720566 -0.085889
v 0.853975 0.599279 -0.112188
v -0.854385 -0.760455 0.071127
v -0.854385 0.602244 0.085889
v -0.853975 -0.760455 0.093937
v -0.197561 0.545632 0.093937
v -0.197561 0.866378 0.093937
v -0.854385 0.720566 0.085889
v -1.000000 -0.760455 0.072906
v -0.854385 -0.760455 -0.071127
v -0.853975 -0.760455 -0.093937
v -0.853975 0.599279 -0.112188
v 1.000000 0.599279 0.091157
v 0.853975 0.599279 0.112188
v 0.853975 -0.760455 0.093937
v 1.000000 -0.760455 0.072906
v 0.853975 -0.760455 -0.093937
v 1.000000 0.599279 -0.091157
v 1.000000 -0.760455 -0.072906
v 0.197561 0.866378 -0.093937
v 0.197561 0.866378 0.093937
v 0.000000 0.866378 0.093937
v 0.000000 0.545632 0.093937
v 0.853975 0.760455 -0.112188
v 1.000000 0.737469 -0.091157
v 0.854385 0.720566 0.085889
v 1.000000 0.737469 0.091157
v 0.853975 0.760455 0.112188
v -1.000000 0.599279 -0.091157
v 0.854385 -0.760455 -0.071127
v -1.000000 -0.760455 -0.072906
v 0.854385 -0.760455 0.071127
vt 0.716954 0.159694
vt 0.801738 0.080556
vt 0.801600 0.159841
vt 0.195710 0.396155
vt 0.029654 0.498437
vt 0.029654 0.396155
vt 0.120207 0.056102
vt 0.971336 0.067221
vt 0.886522 0.183890
vt 0.886522 0.079288
vt 0.293908 0.396155
vt 0.387008 0.056102
vt 0.391175 0.396155
vt 0.498705 0.916956
vt 0.483617 0.847368
vt 0.498705 0.849069
vt 0.507175 0.067221
vt 0.483617 0.847368
vt 0.494088 0.067222
vt 0.029654 0.600719
vt 0.120207 0.940773
vt 0.058949 0.940773
vt 0.717092 0.939894
vt 0.801738 0.940041
vt 0.588793 0.067221
vt 0.612352 0.847368
vt 0.597263 0.849069
vt 0.886385 0.847421
vt 0.801876 0.067368
vt 0.886522 0.067221
vt 0.717092 0.939894
vt 0.801600 0.159841
vt 0.801738 0.940041
vt 0.195710 0.600719
vt 0.195710 0.498437
vt 0.195710 0.498437
vt 0.029654 0.396155
vt 0.195710 0.396155
vt 0.716954 0.159694
vt 0.801738 0.080556
vt 0.612352 0.847368
vt 0.597263 0.916956
vt 0.597263 0.849069
vt 0.498705 0.916956
vt 0.612352 0.939842
vt 0.483617 0.939842
vt 0.391175 0.396155
vt 0.298074 0.056102
vt 0.387008 0.056102
vt 0.293908 0.600719
vt 0.387008 0.940773
vt 0.298074 0.940773
vt 0.391175 0.498437
vt 0.293908 0.396155
vt 0.886522 0.926706
vt 0.801738 0.847568
vt 0.391175 0.600719
vt 0.293908 0.498437
vt 0.391175 0.498437
vt 0.971336 0.195957
vt 0.886522 0.079288
vt 0.971336 0.067221
vt 0.801738 0.847568
vt 0.886522 0.926706
vt 0.801899 0.940041
vt 0.391175 0.600719
vt 0.298074 0.940773
vt 0.293908 0.600719
vt 0.597263 0.916956
vt 0.507175 0.067221
vt 0.494088 0.067222
vt 0.029654 0.600719
vt 0.120207 0.940773
vt 0.058949 0.940773
vt 0.801876 0.067368
vt 0.886385 0.847421
vt 0.612352 0.847368
vt 0.706483 0.067221
vt 0.716954 0.847368
vt 0.716954 0.926655
vt 0.612352 0.847368
vt 0.716954 0.847368
vt 0.612352 0.926655
vt 0.716954 0.926655
vt 0.029654 0.498437
vt 0.588793 0.067221
vt 0.601880 0.067222
vt 0.120207 0.056102
vt 0.058949 0.056102
vt 0.483617 0.939842
vt 0.622823 0.067221
vt 0.706483 0.067221
vt 0.293908 0.498437
vt 0.612352 0.939842
vt 0.498705 0.849069
vt 0.717115 0.067221
vt 0.058949 0.056102
vt 0.971336 0.195957
vt 0.298074 0.056102
vt 0.195710 0.600719
vt 0.601880 0.067222
vt 0.717115 0.067221
vt 0.801899 0.940041
vt 0.886522 0.183890
vt 0.387008 0.940773
vt 0.886522 0.067221
vt 0.622823 0.067221
vt 0.612352 0.926655
vn -0.1425 -0.0066 0.9898
vn -0.1426 -0.0000 0.9898
vn -0.0118 0.0000 -0.9999
vn 0.0000 0.0000 -1.0000
vn -0.0121 0.0000 -0.9999
vn -0.0123 0.0000 -0.9999
vn -0.1555 0.9878 0.0000
vn 0.0859 -0.9963 0.0000
vn -0.9999 -0.0000 0.0156
vn -0.9999 -0.0000 0.0151
vn -0.9999 0.0001 0.0156
vn 0.9998 0.0002 -0.0179
vn 0.9999 -0.0000 -0.0151
vn 0.9998 0.0002 -0.0180
vn -0.0121 0.0000 0.9999
vn -0.0123 -0.0000 0.9999
vn -0.1425 -0.0133 0.9897
vn 0.9998 0.0002 0.0179
vn 0.9999 -0.0000 0.0151
vn 0.9999 0.0001 0.0156
vn 0.1425 -0.0066 0.9898
vn 0.1425 -0.0133 0.9897
vn 0.1425 -0.0133 -0.9897
vn 0.1425 -0.0066 -0.9898
vn 0.0118 0.0000 -0.9999
vn 0.0000 -0.0000 1.0000
vn 0.0121 -0.0000 0.9999
vn 0.0118 -0.0000 0.9999
vn 0.1426 0.0000 -0.9898
vn -0.9999 -0.0000 -0.0151
vn -0.9999 -0.0000 -0.0156
vn -0.9999 0.0001 -0.0156
vn 0.9999 -0.0103 0.0000
vn -0.2167 0.9762 0.0000
vn -0.0859 -0.9963 0.0000
vn 0.0000 1.0000 0.0000
vn 0.1426 -0.0000 0.9898
vn 0.0000 -1.0000 0.0000
vn 0.1555 0.9878 0.0000
vn -0.1425 -0.0066 -0.9898
vn -0.1426 0.0000 -0.9898
vn 0.2167 0.9762 0.0000
vn 0.9999 -0.0000 0.0156
vn -0.9998 0.0002 0.0179
vn -0.9998 0.0002 0.0180
vn 0.0121 0.0000 -0.9999
vn 0.0123 0.0000 -0.9999
vn -0.1425 -0.0133 -0.9897
vn 1.0000 0.0000 0.0000
vn -1.0000 0.0000 0.0000
vn -0.9998 0.0002 -0.0179
vn -0.9998 0.0002 -0.0180
vn 0.9999 -0.0000 -0.0156
vn 0.0123 -0.0000 0.9999
vn -0.9999 -0.0103 0.0000
vn 0.9999 0.0001 -0.0156
vn -0.0118 -0.0000 0.9999
vn 0.9998 0.0002 0.0180
usemtl マテリアル
s 1
f 1/1/1 3/2/2 4/3/1
f 6/4/3 8/5/4 5/6/5
f 5/6/5 10/7/6 6/4/3
f 2/8/7 12/9/7 3/10/7
f 14/11/8 16/12/8 13/13/8
f 17/14/9 18/15/10 15/16/11
f 19/17/12 1/18/13 21/19/14
f 22/20/15 24/21/16 20/22/16
f 21/23/17 4/3/1 25/24/17
f 26/25/18 28/26/19 9/27/20
f 29/28/21 31/29/22 32/30/22
f 33/31/23 34/32/24 35/33/23
f 36/34/25 8/5/4 7/35/4
f 38/36/26 13/37/27 37/38/28
f 18/39/24 41/40/29 34/32/24
f 30/41/30 42/42/31 16/43/32
f 24/44/33 11/45/33 2/46/33
f 23/47/34 10/48/34 24/49/34
f 5/50/35 20/51/35 9/52/35
f 38/53/36 6/54/36 23/47/36
f 43/55/37 30/56/21 29/28/21
f 22/57/38 8/58/38 39/59/38
f 44/60/39 41/61/39 40/62/39
f 28/63/40 12/64/41 11/65/41
f 37/66/42 17/67/42 36/68/42
f 28/26/19 10/69/43 9/27/20
f 46/70/44 18/15/10 33/71/45
f 14/72/46 17/73/47 15/74/47
f 27/75/48 45/76/40 28/63/40
f 29/77/49 35/78/49 34/79/49
f 9/27/49 19/17/49 26/25/49
f 3/80/50 45/81/50 4/82/50
f 43/83/49 34/79/49 41/84/49
f 38/36/26 22/20/15 39/85/26
f 30/41/30 48/86/51 31/87/52
f 1/18/13 24/44/53 2/46/53
f 42/88/54 13/37/27 16/89/54
f 42/42/55 40/90/55 17/14/55
f 15/16/50 48/86/50 16/43/50
f 4/82/50 47/91/50 25/92/50
f 38/53/36 36/68/36 7/93/36
f 17/14/9 40/90/9 18/15/10
f 30/41/30 44/94/31 42/42/31
f 28/26/19 11/45/43 10/69/43
f 1/18/13 20/95/56 24/44/53
f 13/13/38 8/58/38 14/11/38
f 1/1/1 2/96/2 3/2/2
f 6/4/3 7/35/4 8/5/4
f 5/6/5 9/97/6 10/7/6
f 2/8/7 11/98/7 12/9/7
f 14/11/8 15/99/8 16/12/8
f 19/17/12 20/95/56 1/18/13
f 22/20/15 23/100/57 24/21/16
f 21/23/17 1/1/1 4/3/1
f 26/25/18 27/101/58 28/26/19
f 29/28/21 30/56/21 31/29/22
f 33/31/23 18/39/24 34/32/24
f 36/34/25 14/72/46 8/5/4
f 38/36/26 39/85/26 13/37/27
f 18/39/24 40/102/29 41/40/29
f 24/44/33 10/69/33 11/45/33
f 23/47/34 6/54/34 10/48/34
f 5/50/35 22/57/35 20/51/35
f 38/53/36 7/93/36 6/54/36
f 43/55/37 44/103/37 30/56/21
f 22/57/38 5/50/38 8/58/38
f 44/60/39 43/104/39 41/61/39
f 28/63/40 45/76/40 12/64/41
f 37/66/42 42/105/42 17/67/42
f 46/70/44 15/16/11 18/15/10
f 14/72/46 36/34/25 17/73/47
f 27/75/48 47/106/48 45/76/40
f 29/77/49 32/107/49 35/78/49
f 9/27/49 20/95/49 19/17/49
f 3/80/50 12/108/50 45/81/50
f 43/83/49 29/77/49 34/79/49
f 38/36/26 23/100/57 22/20/15
f 30/41/30 16/43/32 48/86/51
f 42/88/54 37/38/28 13/37/27
f 42/42/55 44/94/55 40/90/55
f 15/16/50 46/70/50 48/86/50
f 4/82/50 45/81/50 47/91/50
f 38/53/36 37/66/36 36/68/36
f 13/13/38 39/59/38 8/58/38
