# Blender v3.1.2 OBJ File: 'door.blend'
# www.blender.org
mtllib door.mtl
o 立方体_立方体.002
v 1.000000 -0.760455 0.072906
v 1.000000 0.737469 0.091157
v 1.000000 -0.760455 -0.072906
v 1.000000 0.737469 -0.091157
v 0.853975 -0.760455 -0.093937
v 0.853975 0.760455 -0.112188
v 0.197561 0.545632 0.093937
v 0.853975 -0.760455 0.093937
v 0.853975 0.760455 0.112188
v 0.197561 0.866378 0.093937
v 0.197561 0.545632 -0.093937
v 1.000000 0.599279 -0.091157
v 1.000000 0.599279 0.091157
v 0.853975 0.599279 0.112188
v 0.197561 0.866378 -0.093937
v 0.853975 0.599279 -0.112188
v 0.000000 0.866378 -0.093937
v 0.000000 0.866378 0.093937
v 0.000000 0.545632 -0.093937
v 0.000000 0.545632 0.093937
v 0.854385 0.720566 -0.085889
v 0.854385 -0.760455 0.071127
v 0.854385 0.602244 0.085889
v 0.854385 0.602244 -0.085889
v 0.854385 0.720566 0.085889
v 0.854385 -0.760455 -0.071127
v -1.000000 -0.760455 0.072906
v -1.000000 0.737469 0.091157
v -1.000000 -0.760455 -0.072906
v -1.000000 0.737469 -0.091157
v -0.853975 -0.760455 -0.093937
v -0.853975 0.760455 -0.112188
v -0.197561 0.545632 0.093937
v -0.853975 -0.760455 0.093937
v -0.853975 0.760455 0.112188
v -0.197561 0.866378 0.093937
v -0.197561 0.545632 -0.093937
v -1.000000 0.599279 -0.091157
v -1.000000 0.599279 0.091157
v -0.853975 0.599279 0.112188
v -0.197561 0.866378 -0.093937
v -0.853975 0.599279 -0.112188
v -0.854385 0.720566 -0.085889
v -0.854385 -0.760455 0.071127
v -0.854385 0.602244 0.085889
v -0.854385 0.602244 -0.085889
v -0.854385 0.720566 0.085889
v -0.854385 -0.760455 -0.071127
vt 0.716954 0.159694
vt 0.717115 0.067221
vt 0.801738 0.080556
vt 0.801600 0.159841
vt 0.029654 0.396155
vt 0.195710 0.396155
vt 0.195710 0.498437
vt 0.029654 0.498437
vt 0.058949 0.056102
vt 0.120207 0.056102
vt 0.886522 0.079288
vt 0.971336 0.067221
vt 0.971336 0.195957
vt 0.886522 0.183890
vt 0.391175 0.396155
vt 0.293908 0.396155
vt 0.298074 0.056102
vt 0.387008 0.056102
vt 0.498705 0.916956
vt 0.483617 0.847368
vt 0.498705 0.849069
vt 0.507175 0.067221
vt 0.498705 0.849069
vt 0.483617 0.847368
vt 0.494088 0.067222
vt 0.029654 0.600719
vt 0.195710 0.600719
vt 0.120207 0.940773
vt 0.058949 0.940773
vt 0.717092 0.939894
vt 0.801738 0.940041
vt 0.588793 0.067221
vt 0.601880 0.067222
vt 0.612352 0.847368
vt 0.597263 0.849069
vt 0.886385 0.847421
vt 0.801738 0.847568
vt 0.801876 0.067368
vt 0.886522 0.067221
vt 0.717092 0.939894
vt 0.716954 0.159694
vt 0.801600 0.159841
vt 0.801738 0.940041
vt 0.195710 0.600719
vt 0.029654 0.600719
vt 0.195710 0.396155
vt 0.195710 0.498437
vt 0.029654 0.498437
vt 0.029654 0.396155
vt 0.717115 0.067221
vt 0.801738 0.080556
vt 0.612352 0.847368
vt 0.597263 0.916956
vt 0.597263 0.849069
vt 0.483617 0.939842
vt 0.498705 0.916956
vt 0.597263 0.916956
vt 0.612352 0.939842
vt 0.387008 0.056102
vt 0.391175 0.396155
vt 0.293908 0.396155
vt 0.298074 0.056102
vt 0.298074 0.940773
vt 0.293908 0.600719
vt 0.391175 0.600719
vt 0.387008 0.940773
vt 0.391175 0.498437
vt 0.293908 0.498437
vt 0.886522 0.926706
vt 0.801899 0.940041
vt 0.391175 0.498437
vt 0.293908 0.498437
vt 0.971336 0.067221
vt 0.971336 0.195957
vt 0.886522 0.183890
vt 0.886522 0.079288
vt 0.801738 0.847568
vt 0.886385 0.847421
vt 0.886522 0.926706
vt 0.801899 0.940041
vt 0.293908 0.600719
vt 0.391175 0.600719
vt 0.387008 0.940773
vt 0.298074 0.940773
vt 0.507175 0.067221
vt 0.494088 0.067222
vt 0.120207 0.940773
vt 0.058949 0.940773
vt 0.801876 0.067368
vt 0.886522 0.067221
vt 0.716954 0.847368
vt 0.612352 0.847368
vt 0.622823 0.067221
vt 0.706483 0.067221
vt 0.716954 0.847368
vt 0.716954 0.926655
vt 0.612352 0.926655
vt 0.612352 0.847368
vt 0.716954 0.926655
vt 0.612352 0.926655
vt 0.588793 0.067221
vt 0.601880 0.067222
vt 0.120207 0.056102
vt 0.058949 0.056102
vt 0.612352 0.939842
vt 0.483617 0.939842
vt 0.706483 0.067221
vt 0.622823 0.067221
vn -0.1426 0.0000 0.9898
vn 0.0000 0.0000 -1.0000
vn -0.0123 0.0000 -0.9999
vn -0.1555 0.9878 0.0000
vn 0.0859 -0.9963 0.0000
vn -0.9999 0.0000 0.0156
vn 0.9999 0.0002 -0.0167
vn -0.0123 0.0000 0.9999
vn -0.1425 -0.0133 0.9897
vn 0.9999 0.0002 0.0167
vn 0.1425 -0.0133 0.9897
vn 0.1425 -0.0133 -0.9897
vn 0.0000 0.0000 1.0000
vn 0.1426 0.0000 -0.9898
vn -0.9999 0.0000 -0.0156
vn 0.9999 -0.0103 0.0000
vn -0.2167 0.9762 0.0000
vn -0.0859 -0.9963 0.0000
vn 0.0000 1.0000 0.0000
vn 0.1426 0.0000 0.9898
vn 0.0000 -1.0000 0.0000
vn 0.1555 0.9878 0.0000
vn -0.1426 0.0000 -0.9898
vn 0.2167 0.9762 0.0000
vn 0.9999 0.0000 0.0156
vn -0.9999 0.0002 0.0167
vn 0.0123 0.0000 -0.9999
vn -0.1425 -0.0133 -0.9897
vn 1.0000 0.0000 0.0000
vn -1.0000 0.0000 0.0000
vn -0.9999 0.0002 -0.0167
vn 0.9999 0.0000 -0.0156
vn 0.0123 0.0000 0.9999
vn -0.9999 -0.0103 0.0000
usemtl マテリアル
s off
f 40/1/1 35/2/1 28/3/1 39/4/1
f 37/5/2 41/6/2 17/7/2 19/8/2
f 37/5/3 46/9/3 43/10/3 41/6/3
f 28/11/4 35/12/4 32/13/4 30/14/4
f 7/15/5 11/16/5 24/17/5 23/18/5
f 21/19/6 16/20/6 24/21/6
f 44/22/7 45/23/7 40/24/7 34/25/7
f 33/26/8 36/27/8 47/28/8 45/29/8
f 34/30/9 40/1/9 39/4/9 27/31/9
f 48/32/10 31/33/10 42/34/10 46/35/10
f 13/36/11 14/37/11 8/38/11 1/39/11
f 5/40/12 16/41/12 12/42/12 3/43/12
f 17/7/2 15/44/2 11/45/2 19/8/2
f 10/46/13 18/47/13 20/48/13 7/49/13
f 16/41/14 6/50/14 4/51/14 12/42/14
f 14/52/15 25/53/15 23/54/15
f 35/55/16 47/56/16 43/57/16 32/58/16
f 47/59/17 36/60/17 41/61/17 43/62/17
f 46/63/18 37/64/18 33/65/18 45/66/18
f 36/60/19 18/67/19 17/68/19 41/61/19
f 2/69/20 9/70/20 14/37/20 13/36/20
f 20/71/21 33/65/21 37/64/21 19/72/21
f 6/73/22 9/74/22 2/75/22 4/76/22
f 42/77/23 38/78/23 30/79/23 32/80/23
f 15/81/24 10/82/24 25/83/24 21/84/24
f 42/34/25 43/57/25 46/35/25
f 26/85/26 24/21/26 16/20/26 5/86/26
f 11/45/27 15/44/27 21/87/27 24/88/27
f 31/89/28 29/90/28 38/78/28 42/77/28
f 12/91/29 13/92/29 1/93/29 3/94/29
f 48/32/29 46/35/29 45/23/29 44/22/29
f 39/95/30 28/96/30 30/97/30 38/98/30
f 4/99/29 2/100/29 13/92/29 12/91/29
f 20/48/13 18/47/13 36/27/13 33/26/13
f 14/52/31 23/54/31 22/101/31 8/102/31
f 40/24/32 47/56/32 35/55/32
f 25/103/33 10/46/33 7/49/33 23/104/33
f 21/19/34 25/53/34 9/105/34 6/106/34
f 23/54/30 24/21/30 26/85/30 22/101/30
f 27/107/30 39/95/30 38/98/30 29/108/30
f 17/68/19 18/67/19 10/82/19 15/81/19
f 21/19/6 6/106/6 16/20/6
f 14/52/15 9/105/15 25/53/15
f 42/34/25 32/58/25 43/57/25
f 40/24/32 45/23/32 47/56/32
f 11/16/21 7/15/21 20/71/21 19/72/21
