# Blender v3.1.2 OBJ File: ''
# www.blender.org
mtllib door3.mtl
o 立方体.001
v 0.000000 0.545632 -0.093937
v 0.197561 -0.760455 -0.093937
v 0.000000 -0.760455 -0.093937
v 0.197561 0.545632 0.093937
v 0.000000 -0.760455 0.093937
v 0.197561 -0.760455 0.093937
v 0.854385 -0.760455 0.071127
v 0.197561 0.545632 -0.093937
v 0.854385 -0.760455 -0.071127
v 0.000000 0.545632 0.093937
v 0.854385 0.602244 0.085889
v 0.854385 0.602244 -0.085889
vt 0.033271 1.000001
vt 0.796874 0.884497
vt 0.796874 1.000001
vt 0.035732 0.115551
vt 0.799335 0.000047
vt 0.799335 0.115551
vt 0.799335 0.499795
vt 0.033271 0.884497
vt 0.796874 0.500254
vt 0.035732 0.000047
vt 0.002587 0.499588
vt 0.000126 0.500461
vn 0.0000 0.0000 -1.0000
vn 0.0000 -0.0000 1.0000
vn 0.0347 -0.0000 0.9994
vn 0.0347 0.0000 -0.9994
vn 0.0132 -0.0108 0.9999
vn 0.0132 -0.0108 -0.9999
usemtl マテリアル
s 1
f 1/1/1 2/2/1 3/3/1
f 4/4/2 5/5/2 6/6/2
f 7/7/3 4/4/3 6/6/3
f 8/8/4 9/9/4 2/2/4
f 1/1/1 8/8/1 2/2/1
f 4/4/2 10/10/2 5/5/2
f 7/7/5 11/11/5 4/4/5
f 8/8/6 12/12/6 9/9/6
