# Blender v3.1.2 OBJ File: 'safdadsfgggd.blend'
# www.blender.org
mtllib door3.mtl
o 立方体.001
v -32.924011 2.371420 0.093937
v -32.924011 1.065333 -0.093937
v -32.924011 2.371420 -0.093937
v -32.924011 1.065333 0.093937
v -33.121574 1.065333 -0.093937
v -33.121574 1.065333 0.093937
v -33.121574 2.371420 -0.093937
v -33.121574 2.371420 0.093937
v -32.267189 1.065333 0.071127
v -32.267189 2.428033 0.085889
v -32.267189 2.428033 -0.085889
v -32.267189 1.065333 -0.071127
vt 0.520903 0.313588
vt 0.999888 0.241136
vt 0.999888 0.313589
vt 0.020903 0.386041
vt 0.499888 0.313588
vt 0.499888 0.386041
vt 0.499888 0.627065
vt 0.520903 0.241136
vt 0.999888 0.000112
vt 0.020903 0.313588
vt 0.000112 0.626935
vt 0.500112 0.000242
vn 0.0000 0.0000 -1.0000
vn 0.0000 0.0000 1.0000
vn 0.0347 0.0000 0.9994
vn 0.0347 0.0000 -0.9994
vn 0.0132 -0.0108 0.9999
vn 0.0132 -0.0108 -0.9999
usemtl マテリアル
s off
f 7/1/1 2/2/1 5/3/1
f 1/4/2 6/5/2 4/6/2
f 9/7/3 1/4/3 4/6/3
f 3/8/4 12/9/4 2/2/4
f 7/1/1 3/8/1 2/2/1
f 1/4/2 8/10/2 6/5/2
f 9/7/5 10/11/5 1/4/5
f 3/8/6 11/12/6 12/9/6
