# Blender v3.1.2 OBJ File: ''
# www.blender.org
mtllib door2.mtl
o 立方体.001
v -0.197561 -0.760455 -0.093937
v 0.000000 0.545632 -0.093937
v 0.000000 -0.760455 -0.093937
v 0.000000 -0.760455 0.093937
v -0.197561 0.545632 0.093937
v -0.197561 -0.760455 0.093937
v -0.854385 -0.760455 0.071127
v -0.854385 0.602244 0.085889
v -0.854385 -0.760455 -0.071127
v -0.197561 0.545632 -0.093937
v 0.000000 0.545632 0.093937
v -0.854385 0.602244 -0.085889
vt 0.796874 0.115630
vt 0.033271 0.000126
vt 0.796874 0.000126
vt 0.796874 0.999874
vt 0.033271 0.884370
vt 0.796874 0.884370
vt 0.796874 0.500126
vt 0.000126 0.500333
vt 0.796874 0.499874
vt 0.033271 0.115630
vt 0.033271 0.999874
vt 0.000126 0.499667
vn 0.0000 0.0000 -1.0000
vn 0.0000 -0.0000 1.0000
vn -0.0132 -0.0108 0.9999
vn -0.0347 0.0000 -0.9994
vn -0.0347 -0.0000 0.9994
vn -0.0132 -0.0108 -0.9999
usemtl マテリアル
s 1
f 1/1/1 2/2/1 3/3/1
f 4/4/2 5/5/2 6/6/2
f 7/7/3 5/5/3 8/8/3
f 9/9/4 10/10/4 1/1/4
f 1/1/1 10/10/1 2/2/1
f 4/4/2 11/11/2 5/5/2
f 7/7/5 6/6/5 5/5/5
f 9/9/6 12/12/6 10/10/6
