# Blender v3.1.2 OBJ File: 'safdadsfgggd.blend'
# www.blender.org
mtllib door2.mtl
o 立方体.001
v -33.121574 1.065333 -0.093937
v -33.121574 1.065333 0.093937
v -33.121574 2.371420 -0.093937
v -33.121574 2.371420 0.093937
v -33.319138 2.371420 0.093937
v -33.319138 1.065333 -0.093937
v -33.319138 2.371420 -0.093937
v -33.319138 1.065333 0.093937
v -33.975960 1.065333 0.071127
v -33.975960 2.428033 0.085889
v -33.975960 2.428033 -0.085889
v -33.975960 1.065333 -0.071127
vt 0.999888 0.386041
vt 0.520903 0.313588
vt 0.999888 0.313589
vt 0.499888 0.313588
vt 0.020903 0.241136
vt 0.499888 0.241136
vt 0.499888 0.000112
vt 0.000112 0.000241
vt 0.999888 0.627065
vt 0.520903 0.386041
vt 0.020903 0.313588
vt 0.500112 0.626935
vn 0.0000 0.0000 -1.0000
vn 0.0000 0.0000 1.0000
vn -0.0132 -0.0108 0.9999
vn -0.0347 0.0000 -0.9994
vn -0.0347 0.0000 0.9994
vn -0.0132 -0.0108 -0.9999
usemtl マテリアル
s off
f 6/1/1 3/2/1 1/3/1
f 2/4/2 5/5/2 8/6/2
f 9/7/3 5/5/3 10/8/3
f 12/9/4 7/10/4 6/1/4
f 6/1/1 7/10/1 3/2/1
f 2/4/2 4/11/2 5/5/2
f 9/7/5 8/6/5 5/5/5
f 12/9/6 11/12/6 7/10/6
