# Blender v3.1.2 OBJ File: 'goal.blend'
# www.blender.org
mtllib goal.mtl
o 立方体_立方体.001
v -4.240790 0.000000 0.500000
v -3.640200 2.435609 0.500000
v -4.240790 0.000000 -0.500000
v -3.640200 2.435609 -0.500000
v -3.240790 0.000000 -0.500000
v -2.795953 1.948589 -0.500000
v -3.240790 0.000000 0.500000
v -2.795953 1.948589 0.500000
v -4.044429 1.175780 0.500000
v -4.044429 1.175780 -0.500000
v -3.080386 0.989296 0.500000
v -3.080386 0.989296 -0.500000
v -2.863591 3.594117 0.500000
v -2.863591 3.594117 -0.500000
v -2.246482 2.824106 -0.500000
v -2.246482 2.824106 0.500000
v -1.610373 4.384097 0.500000
v -1.610373 4.384097 -0.500000
v -1.290007 3.474822 -0.500000
v -1.290007 3.474822 0.500000
v 0.000000 4.667697 0.500000
v 0.000000 4.667697 -0.500000
v 0.000000 3.721086 -0.500000
v 0.000000 3.721086 0.500000
v 4.240790 0.000000 0.500000
v 3.640200 2.435609 0.500000
v 4.240790 0.000000 -0.500000
v 3.640200 2.435609 -0.500000
v 3.240790 0.000000 -0.500000
v 2.795953 1.948589 -0.500000
v 3.240790 0.000000 0.500000
v 2.795953 1.948589 0.500000
v 4.044429 1.175780 0.500000
v 4.044429 1.175780 -0.500000
v 3.080386 0.989296 0.500000
v 3.080386 0.989296 -0.500000
v 2.863591 3.594117 0.500000
v 2.863591 3.594117 -0.500000
v 2.246482 2.824106 -0.500000
v 2.246482 2.824106 0.500000
v 1.610373 4.384097 0.500000
v 1.610373 4.384097 -0.500000
v 1.290007 3.474822 -0.500000
v 1.290007 3.474822 0.500000
vt 0.210251 0.587588
vt 0.127895 0.649833
vt 0.127895 0.587588
vt 0.262475 0.221521
vt 0.152336 0.153344
vt 0.237382 0.136893
vt 0.830268 0.264485
vt 0.707315 0.298758
vt 0.755789 0.221521
vt 0.105964 0.898347
vt 0.018347 0.986566
vt 0.018347 0.898347
vt 0.865928 0.153344
vt 0.780881 0.136893
vt 0.921331 0.766631
vt 0.842856 0.844933
vt 0.842856 0.766631
vt 0.764510 0.844933
vt 0.764510 0.766631
vt 0.795032 0.049618
vt 0.883251 0.049618
vt 0.223232 0.049618
vt 0.135013 0.049618
vt 0.053694 0.649833
vt 0.053694 0.587587
vt 0.761756 0.366688
vt 0.622935 0.356164
vt 0.297067 0.649833
vt 0.210251 0.649833
vt 0.187996 0.264485
vt 0.310949 0.298758
vt 0.256508 0.366688
vt 0.683573 0.766631
vt 0.389279 0.587588
vt 0.491060 0.649833
vt 0.389279 0.649833
vt 0.297067 0.587588
vt 0.683573 0.844933
vt 0.592991 0.766631
vt 0.395328 0.356164
vt 0.367066 0.436379
vt 0.592991 0.844933
vt 0.490157 0.766631
vt 0.509132 0.377889
vt 0.509132 0.461398
vt 0.651198 0.436379
vt 0.509132 0.377889
vt 0.854224 0.649833
vt 0.771868 0.587588
vt 0.854224 0.587588
vt 0.865928 0.153344
vt 0.755789 0.221521
vt 0.780881 0.136893
vt 0.310949 0.298758
vt 0.187996 0.264485
vt 0.262475 0.221521
vt 0.105964 0.986566
vt 0.018347 0.898346
vt 0.105964 0.898346
vt 0.152336 0.153344
vt 0.137458 0.844933
vt 0.058983 0.766631
vt 0.137458 0.766631
vt 0.215804 0.844933
vt 0.215804 0.766631
vt 0.223232 0.049618
vt 0.135013 0.049618
vt 0.795032 0.049618
vt 0.928425 0.649833
vt 0.928425 0.587588
vt 0.395328 0.356164
vt 0.256508 0.366688
vt 0.685052 0.649833
vt 0.771868 0.649833
vt 0.830268 0.264485
vt 0.707315 0.298758
vt 0.296741 0.766631
vt 0.592840 0.587588
vt 0.592840 0.649833
vt 0.685052 0.587588
vt 0.387323 0.766631
vt 0.296741 0.844933
vt 0.761756 0.366688
vt 0.622935 0.356164
vt 0.387323 0.844933
vt 0.651198 0.436379
vt 0.367066 0.436379
vt 0.105964 0.986566
vt 0.921331 0.844933
vt 0.491059 0.587588
vt 0.490157 0.844933
vt 0.509132 0.461398
vt 0.018347 0.986566
vt 0.237382 0.136893
vt 0.058983 0.844933
vt 0.883251 0.049618
vn -0.9522 0.3055 0.0000
vn 0.0000 -0.0000 1.0000
vn -0.0000 0.0000 -1.0000
vn 0.0000 -1.0000 0.0000
vn 0.9871 -0.1600 0.0000
vn 0.9587 -0.2843 0.0000
vn -0.9863 0.1647 0.0000
vn -0.8306 0.5568 0.0000
vn 0.8470 -0.5316 0.0000
vn -0.1734 0.9848 0.0000
vn -0.5333 0.8460 0.0000
vn 0.5625 -0.8268 0.0000
vn 0.1875 -0.9823 0.0000
vn 0.9522 0.3055 0.0000
vn -0.9871 -0.1600 0.0000
vn -0.9587 -0.2843 0.0000
vn 0.9863 0.1647 0.0000
vn 0.8306 0.5568 0.0000
vn -0.8470 -0.5316 0.0000
vn 0.1734 0.9848 0.0000
vn 0.5333 0.8460 0.0000
vn -0.5625 -0.8268 0.0000
vn -0.1875 -0.9823 0.0000
usemtl マテリアル
s off
f 2/1/1 10/2/1 9/3/1
f 8/4/2 9/5/2 11/6/2
f 4/7/3 15/8/3 6/9/3
f 5/10/4 1/11/4 3/12/4
f 10/13/3 6/9/3 12/14/3
f 7/15/5 12/16/5 11/17/5
f 11/17/6 6/18/6 8/19/6
f 10/13/3 5/20/3 3/21/3
f 7/22/2 9/5/2 1/23/2
f 9/3/7 3/24/7 1/25/7
f 14/26/3 19/27/3 15/8/3
f 2/1/8 14/28/8 4/29/8
f 2/30/2 16/31/2 13/32/2
f 6/18/9 16/33/9 8/19/9
f 17/34/10 22/35/10 18/36/10
f 13/37/11 18/36/11 14/28/11
f 15/38/12 20/39/12 16/33/12
f 13/32/2 20/40/2 17/41/2
f 19/42/13 24/43/13 20/39/13
f 17/41/2 24/44/2 21/45/2
f 18/46/3 23/47/3 19/27/3
f 34/48/14 26/49/14 33/50/14
f 33/51/2 32/52/2 35/53/2
f 39/54/3 28/55/3 30/56/3
f 25/57/4 29/58/4 27/59/4
f 34/60/3 30/56/3 28/55/3
f 36/61/15 31/62/15 35/63/15
f 30/64/16 35/63/16 32/65/16
f 29/66/3 34/60/3 27/67/3
f 31/68/2 33/51/2 35/53/2
f 27/69/17 33/50/17 25/70/17
f 43/71/3 38/72/3 39/54/3
f 38/73/18 26/49/18 28/74/18
f 26/75/2 40/76/2 32/52/2
f 40/77/19 30/64/19 32/65/19
f 22/35/20 41/78/20 42/79/20
f 42/79/21 37/80/21 38/73/21
f 44/81/22 39/82/22 40/77/22
f 37/83/2 44/84/2 40/76/2
f 24/43/23 43/85/23 44/81/23
f 41/86/2 24/44/2 44/84/2
f 23/47/3 42/87/3 43/71/3
f 2/1/1 4/29/1 10/2/1
f 8/4/2 2/30/2 9/5/2
f 4/7/3 14/26/3 15/8/3
f 5/10/4 7/88/4 1/11/4
f 10/13/3 4/7/3 6/9/3
f 7/15/5 5/89/5 12/16/5
f 11/17/6 12/16/6 6/18/6
f 10/13/3 12/14/3 5/20/3
f 7/22/2 11/6/2 9/5/2
f 9/3/7 10/2/7 3/24/7
f 14/26/3 18/46/3 19/27/3
f 2/1/8 13/37/8 14/28/8
f 2/30/2 8/4/2 16/31/2
f 6/18/9 15/38/9 16/33/9
f 17/34/10 21/90/10 22/35/10
f 13/37/11 17/34/11 18/36/11
f 15/38/12 19/42/12 20/39/12
f 13/32/2 16/31/2 20/40/2
f 19/42/13 23/91/13 24/43/13
f 17/41/2 20/40/2 24/44/2
f 18/46/3 22/92/3 23/47/3
f 34/48/14 28/74/14 26/49/14
f 33/51/2 26/75/2 32/52/2
f 39/54/3 38/72/3 28/55/3
f 25/57/4 31/93/4 29/58/4
f 34/60/3 36/94/3 30/56/3
f 36/61/15 29/95/15 31/62/15
f 30/64/16 36/61/16 35/63/16
f 29/66/3 36/94/3 34/60/3
f 31/68/2 25/96/2 33/51/2
f 27/69/17 34/48/17 33/50/17
f 43/71/3 42/87/3 38/72/3
f 38/73/18 37/80/18 26/49/18
f 26/75/2 37/83/2 40/76/2
f 40/77/19 39/82/19 30/64/19
f 22/35/20 21/90/20 41/78/20
f 42/79/21 41/78/21 37/80/21
f 44/81/22 43/85/22 39/82/22
f 37/83/2 41/86/2 44/84/2
f 24/43/23 23/91/23 43/85/23
f 41/86/2 21/45/2 24/44/2
f 23/47/3 22/92/3 42/87/3
